<?xml version="1.0" standalone="yes"?>
<svg xmlns="http://www.w3.org/2000/svg" xmlns:xlink="http://www.w3.org/1999/xlink" xmlns:svg="http://www.w3.org/2000/svg" xmlns:dc="http://purl.org/dc/elements/1.1/" xmlns:cc="http://web.resource.org/cc/" xmlns:rdf="http://www.w3.org/1999/02/22-rdf-syntax-ns#" width="142" height="160">
<path style="fill:none; stroke:none;" d="M0 0L0 64L1 64C2.48773 46.9598 13.3571 32.6442 25 21C18.2788 31.9012 12.5656 42.9984 11.1736 56C6.87156 96.1835 37.0371 132.963 77 136.83C95.9224 138.661 111.881 131.938 128 123L101 144C105.924 143.92 110.317 144.611 113 149C86.0777 158.108 59.4986 154.638 32 151C32.6194 142.813 38.1896 142.585 45 144L45 143C22.8496 130.059 1.57318 110.77 1 83L0 83L0 160L142 160L142 78C125.774 77.9427 113.02 55.8551 101.975 45.5756C98.7958 42.6164 93.8027 34.5955 88.9606 34.7469C83.1163 34.9297 75.3705 43.7169 71 47.1991C57.4165 58.0217 39.9923 77.998 22 78L71 39.4244L89 26.966L109 44L109 37L124.397 38.6034L126.603 61L142 77L142 0L82 0L82 1C98.9052 1.86765 114.987 14.3749 124 28C90.1349 -1.30118 36.9595 9.52351 22.5201 54C18.0761 67.6883 21.9216 82.572 25 96L24 96C19.9049 86.4966 14.3108 77.584 13.1736 67C10.0004 37.467 33.0268 3.53325 64 1L44 0L0 0z"/>
<path style="fill:#3f67ad; stroke:none;" d="M24 96L25 96C22.9555 82.3499 18.2854 72.2551 21.6759 58C29.093 26.8159 61.6588 5.46606 93 12.1204C105.136 14.697 113.773 21.6315 124 28C108.982 -5.69467 58.8712 -6.46851 34 14.4398C9.24676 35.249 7.90095 69.6957 24 96z"/>
<path style="fill:#98add5; stroke:none;" d="M80.6667 0.333328L81.3333 0.666672L80.6667 0.333328M59.6667 1.33333L60.3333 1.66667L59.6667 1.33333M85 1L85 2L88 2L85 1z"/>
<path style="fill:#d3d3d3; stroke:none;" d="M70 11L70 12L74 12L70 11z"/>
<path style="fill:#98add5; stroke:none;" d="M94.6667 12.3333L95.3333 12.6667L94.6667 12.3333z"/>
<path style="fill:#b0c3eb; stroke:none;" d="M62.6667 13.3333L63.3333 13.6667L62.6667 13.3333z"/>
<path style="fill:#ced17f; stroke:none;" d="M24.3333 21.6667L24.6667 22.3333L24.3333 21.6667z"/>
<path style="fill:#b1bb2d; stroke:none;" d="M23 22C5.10052 39.949 -3.95489 64.7618 1.5108 90C3.44833 98.9467 7.80654 106.576 11 115L14 115L15 107L16 107L16 110L17 110L20 99C13.2861 82.8481 8.33788 66.6073 12.5031 49C14.3935 41.0086 23.6431 29.4628 23 22z"/>
<path style="fill:#8a252d; stroke:none;" d="M24 77C41.832 76.998 57.4198 58.3388 71 47.8812C76.5908 43.5759 84.397 39.1324 88 33C99.3854 41.02 108.967 53.0368 118.576 63.0748C125.573 70.3847 130.441 76.9918 141 77L126.028 60L125 38L110 38L110 45C104.881 40.5719 96.0764 26.3659 89 26.1921C83.8111 26.0647 75.918 34.9209 72 38C56.8196 49.93 35.7331 61.6691 24 77z"/>
<path style="fill:#b78184; stroke:none;" d="M84 28L85 29L84 28z"/>
<path style="fill:#c3c6dc; stroke:none;" d="M124 28L127 31L124 28z"/>
<path style="fill:#b78184; stroke:none;" d="M79 32L80 33L79 32z"/>
<path style="fill:#c98890; stroke:none;" d="M88.6667 33.3333L89.3333 33.6667L88.6667 33.3333z"/>
<path style="fill:#bf9393; stroke:none;" d="M93 37L94 38L93 37z"/>
<path style="fill:#ddb2b1; stroke:none;" d="M109 37L109 38L125 38L109 37z"/>
<path style="fill:#c98890; stroke:none;" d="M82 38L83 39L82 38z"/>
<path style="fill:#a5525e; stroke:none;" d="M109 38L108 45L109 38z"/>
<path style="fill:#d0a2a7; stroke:none;" d="M125 38L125 61L126 61L125 38z"/>
<path style="fill:#bf9393; stroke:none;" d="M70 39L71 40L70 39M97 41L98 42L97 41M98 42L99 43L98 42M99 43L100 44L99 43M100 44L101 45L100 44M101 45L102 46L101 45z"/>
<path style="fill:#dbe2a2; stroke:none;" d="M5.33333 46.6667L5.66667 47.3333L5.33333 46.6667z"/>
<path style="fill:#ced17f; stroke:none;" d="M12.3333 48.6667L12.6667 49.3333L12.3333 48.6667z"/>
<path style="fill:#bf9393; stroke:none;" d="M68 49L69 50L68 49M56 50L57 51L56 50M106 50L107 51L106 50z"/>
<path style="fill:#c98890; stroke:none;" d="M107 51L108 52L107 51z"/>
<path style="fill:#b78184; stroke:none;" d="M108 52L109 53L108 52z"/>
<path style="fill:#c98890; stroke:none;" d="M109 53L110 54L109 53z"/>
<path style="fill:#2d3f63; stroke:none;" d="M63 131C73.3547 130.656 73.4413 115.055 76 107L77 107C77.1998 116.679 77.1686 122.152 73 131L80 131L82.4506 114L75 90L67 84C71.6101 81.1443 74.8238 75.3843 75 70L81 71L86 76C83.7992 70.1851 79.0988 59.1749 72.9599 56.7431C68.2065 54.86 50.5065 62.7496 50.8318 68.1242C51.2776 75.4897 62.823 71.068 65.3966 77.1335C67.3126 81.6492 65.7575 88.1783 66.0895 93C66.7051 101.939 69.4786 110.969 67.6204 119.999C66.795 124.01 64.0603 127.111 63 131z"/>
<path style="fill:#898da2; stroke:none;" d="M62 58L63 59L62 58z"/>
<path style="fill:#b78184; stroke:none;" d="M90 59L90 66L91 66L91 60L97 60L90 59z"/>
<path style="fill:#d0a2a7; stroke:none;" d="M97 59L97 66L98 66L97 59z"/>
<path style="fill:#b78184; stroke:none;" d="M100 59L100 60L107 60L100 59z"/>
<path style="fill:#bf9393; stroke:none;" d="M54 60L55 61L54 60z"/>
<path style="fill:#8a252d; stroke:none;" d="M91 60L91 66L97 66L97 60L91 60z"/>
<path style="fill:#a5525e; stroke:none;" d="M100 60L100 66L101 66L100 60z"/>
<path style="fill:#8a252d; stroke:none;" d="M101 60L101 66L107 66L107 60L101 60z"/>
<path style="fill:#c98890; stroke:none;" d="M116 60L117 61L116 60M42 61L43 62L42 61z"/>
<path style="fill:#898da2; stroke:none;" d="M59 61L60 62L59 61z"/>
<path style="fill:#c98890; stroke:none;" d="M117 61L118 62L117 61z"/>
<path style="fill:#898da2; stroke:none;" d="M58 62L59 63L58 62z"/>
<path style="fill:#bf9393; stroke:none;" d="M118 62L119 63L118 62z"/>
<path style="fill:#ced17f; stroke:none;" d="M0 64L0 69L1 69L0 64z"/>
<path style="fill:#b0c3eb; stroke:none;" d="M20 64L20 79L21 79L20 64z"/>
<path style="fill:#778298; stroke:none;" d="M53.6667 64.3333L54.3333 64.6667L53.6667 64.3333z"/>
<path style="fill:#b78184; stroke:none;" d="M37 65L38 66L37 65z"/>
<path style="fill:#f1cdcf; stroke:none;" d="M100 66L100 67L107 67L100 66z"/>
<path style="fill:#98add5; stroke:none;" d="M13 67L13 70L14 70L13 67z"/>
<path style="fill:#c98890; stroke:none;" d="M45 67L46 68L45 67z"/>
<path style="fill:#bf9393; stroke:none;" d="M33 68L34 69L33 68z"/>
<path style="fill:#b78184; stroke:none;" d="M124 68L125 69L124 68z"/>
<path style="fill:#a1a7b6; stroke:none;" d="M82 69L83 70L82 69z"/>
<path style="fill:#d0a2a7; stroke:none;" d="M90 69L90 76L91 76L90 69z"/>
<path style="fill:#a5525e; stroke:none;" d="M91 69L91 70L97 70L91 69z"/>
<path style="fill:#d0a2a7; stroke:none;" d="M97 69L97 76L98 76L97 69z"/>
<path style="fill:#a5525e; stroke:none;" d="M100 69L100 76L101 76L101 70L107 70L100 69z"/>
<path style="fill:#b78184; stroke:none;" d="M125 69L126 70L125 69z"/>
<path style="fill:#8b97ab; stroke:none;" d="M51 70L52 71L51 70z"/>
<path style="fill:#a1a7b6; stroke:none;" d="M75 70L75 75L76 75L75 70z"/>
<path style="fill:#8a252d; stroke:none;" d="M91 70L91 76L97 76L97 70L91 70M101 70L101 76L107 76L107 70L101 70z"/>
<path style="fill:#c98890; stroke:none;" d="M126 70L127 71L126 70z"/>
<path style="fill:#b78184; stroke:none;" d="M127 71L128 72L127 71z"/>
<path style="fill:#8b97ab; stroke:none;" d="M14.3333 72.6667L14.6667 73.3333L14.3333 72.6667z"/>
<path style="fill:#bf9393; stroke:none;" d="M28 72L29 73L28 72z"/>
<path style="fill:#a1a7b6; stroke:none;" d="M60.6667 73.3333L61.3333 73.6667L60.6667 73.3333z"/>
<path style="fill:#8b97ab; stroke:none;" d="M65 75L66 76L65 75z"/>
<path style="fill:#ddb2b1; stroke:none;" d="M22.3333 76.6667L22.6667 77.3333L22.3333 76.6667z"/>
<path style="fill:#b78184; stroke:none;" d="M23 76L33 78L33 77L23 76z"/>
<path style="fill:#5b6981; stroke:none;" d="M86 76L87 77L86 76z"/>
<path style="fill:#ced17f; stroke:none;" d="M12 77L12 80L13 80L12 77z"/>
<path style="fill:#67775f; stroke:none;" d="M87 77L89 81L87 77z"/>
<path style="fill:#b78184; stroke:none;" d="M133 77L133 78L142 78L133 77z"/>
<path style="fill:#2d3f63; stroke:none;" d="M89 80C90.9821 91.5117 101.068 96.7336 110 103C107.26 93.7708 97.6181 84.018 89 80z"/>
<path style="fill:#98add5; stroke:none;" d="M21 82L21 85L22 85L21 82z"/>
<path style="fill:#778298; stroke:none;" d="M65 83L65 94L66 94L65 83z"/>
<path style="fill:#898da2; stroke:none;" d="M67.3333 84.6667L67.6667 85.3333L67.3333 84.6667z"/>
<path style="fill:#98add5; stroke:none;" d="M22.3333 86.6667L22.6667 87.3333L22.3333 86.6667z"/>
<path style="fill:#8b97ab; stroke:none;" d="M98 87L99 88L98 87z"/>
<path style="fill:#adb4c5; stroke:none;" d="M91.3333 88.6667L91.6667 89.3333L91.3333 88.6667M70.6667 89.3333L71.3333 89.6667L70.6667 89.3333M75 90L75 101L76 101L75 90z"/>
<path style="fill:#dbe2a2; stroke:none;" d="M2 93L2 96L3 96L2 93z"/>
<path style="fill:#8b97ab; stroke:none;" d="M104 93L105 94L104 93z"/>
<path style="fill:#bbbfb5; stroke:none;" d="M25 96L27 99L25 96z"/>
<path style="fill:#adb4c5; stroke:none;" d="M66.3333 96.6667L66.6667 97.3333L66.3333 96.6667z"/>
<path style="fill:#8b9e2a; stroke:none;" d="M18 99L17 110L16 110L16 107L15 107L12 115L12 116C26.36 135.973 43.196 145.066 67 145L67 144L64 144L66 141L66 140L66 139L64 137L67 136L67 135C46.0717 131.865 31.4934 115.172 20 99L18 99z"/>
<path style="fill:#dbe2a2; stroke:none;" d="M5.33333 102.667L5.66667 103.333L5.33333 102.667z"/>
<path style="fill:#a1a7b6; stroke:none;" d="M76.3333 102.667L76.6667 103.333L76.3333 102.667z"/>
<path style="fill:#778298; stroke:none;" d="M110 102L110 106L111 106L110 102z"/>
<path style="fill:#8b97ab; stroke:none;" d="M77 105L78 106L77 105z"/>
<path style="fill:#adb4c5; stroke:none;" d="M75.3333 108.667L75.6667 109.333L75.3333 108.667z"/>
<path style="fill:#ced17f; stroke:none;" d="M9.33333 110.667L9.66667 111.333L9.33333 110.667z"/>
<path style="fill:#898da2; stroke:none;" d="M74 111L74 114L75 114L74 111z"/>
<path style="fill:#5b6981; stroke:none;" d="M77 113L77 120L78 120L77 113z"/>
<path style="fill:#a1a7b6; stroke:none;" d="M67 116L67 120L68 120L67 116z"/>
<path style="fill:#adb4c5; stroke:none;" d="M72.3333 119.667L72.6667 120.333L72.3333 119.667z"/>
<path style="fill:#778298; stroke:none;" d="M67.3333 120.667L67.6667 121.333L67.3333 120.667z"/>
<path style="fill:#8b97ab; stroke:none;" d="M71 122L71 125L72 125L71 122z"/>
<path style="fill:#a1a7b6; stroke:none;" d="M81.3333 122.667L81.6667 123.333L81.3333 122.667z"/>
<path style="fill:#67775f; stroke:none;" d="M123 126L128 123L123 126z"/>
<path style="fill:#778298; stroke:none;" d="M76.3333 124.667L76.6667 125.333L76.3333 124.667z"/>
<path style="fill:#607d28; stroke:none;" d="M64 137L66 139L66 140L66 141C63.4766 142.417 64.5416 143.483 67 144L67 145L56 146L56 147C76.493 150.805 112.891 146.796 124 126L94 136.7L64 137z"/>
<path style="fill:#898da2; stroke:none;" d="M62 128L62 132L69 132L69 131L62 128z"/>
<path style="fill:#c3c6dc; stroke:none;" d="M80.3333 128.667L80.6667 129.333L80.3333 128.667z"/>
<path style="fill:#a1a7b6; stroke:none;" d="M69.3333 129.667L69.6667 130.333L69.3333 129.667z"/>
<path style="fill:#898da2; stroke:none;" d="M72 129C72.8544 132.987 76.4895 132 80 132L80 131L72 129z"/>
<path style="fill:#9ca68a; stroke:none;" d="M121 129L122 130L121 129z"/>
<path style="fill:#dbe2a2; stroke:none;" d="M60.6667 133.333L61.3333 133.667L60.6667 133.333z"/>
<path style="fill:#8a9e74; stroke:none;" d="M106.667 133.333L107.333 133.667L106.667 133.333z"/>
<path style="fill:#bbbfb5; stroke:none;" d="M63.6667 134.333L64.3333 134.667L63.6667 134.333M102.667 134.333L103.333 134.667L102.667 134.333z"/>
<path style="fill:#9ca68a; stroke:none;" d="M115 134L116 135L115 134z"/>
<path style="fill:#b4be83; stroke:none;" d="M67.6667 135.333L68.3333 135.667L67.6667 135.333z"/>
<path style="fill:#9ca68a; stroke:none;" d="M98.6667 135.333L99.3333 135.667L98.6667 135.333z"/>
<path style="fill:#b0be9e; stroke:none;" d="M72 136L72 137L75 137L72 136z"/>
<path style="fill:#9ca68a; stroke:none;" d="M93 136L93 137L96 137L93 136z"/>
<path style="fill:#8a9e74; stroke:none;" d="M102.667 141.333L103.333 141.667L102.667 141.333z"/>
<path style="fill:#d3d3d3; stroke:none;" d="M32 151C56.2017 156.394 89.844 159.829 113 149C108.988 138.987 95.1906 144.915 88 147L88 148L92 151L48 148L48 147L57 148C49.968 142.46 32.4158 138.231 32 151z"/>
<path style="fill:#b4be83; stroke:none;" d="M48.6667 144.333L49.3333 144.667L48.6667 144.333z"/>
<path style="fill:#9ca68a; stroke:none;" d="M92.6667 145.333L93.3333 145.667L92.6667 145.333M88.6667 146.333L89.3333 146.667L88.6667 146.333z"/>
<path style="fill:#bbbfb5; stroke:none;" d="M48 147L48 148L92 151C86.8413 145.155 81.672 148.636 75 148.96C66.0018 149.397 57.0031 147.362 48 147z"/>
<path style="fill:#9ca68a; stroke:none;" d="M64 148L64 149L80 149L64 148z"/>
</svg>
