<svg id="Layer_1" data-name="Layer 1" xmlns="http://www.w3.org/2000/svg" viewBox="0 0 1000 1000"><defs><style>.cls-1{fill:#414042;}</style></defs><path class="cls-1" d="M852.57,383.35c-2.92-34.74-12.48-66.25-28.39-93.66A206.33,206.33,0,0,0,803.45,247c-19-29.75-45.6-54-79.2-72.12-46.77-25.21-95.38-29.36-144.48-12.35C529.43,180,490.68,214.67,464.61,265.65c-6.61,12.93-11.51,26.46-16.25,39.54-1,2.66-1.95,5.37-2.94,8.07-8.83-3.74-17.58-7.34-26.08-10.73-53.44-21.32-108.2-22.74-154.2-4l-.2.09c-25,10.81-41.4,20.72-56.57,34.21-31.35,27.88-51.13,64.75-58.78,109.6-8.48,49.68-.27,96.64,24.4,139.56,14.54,25.29,34.06,48.4,59.69,70.62,9.42,8.17,19.32,16,29.79,23.57,32.28,28.11,70.69,52.71,119.72,76.75,44.27,21.71,91.83,40.63,145.4,57.83,39.48,12.68,81.59,24.81,125.16,36a28.78,28.78,0,0,0,7.17.94c8.79,0,16.39-4.45,21.11-12.66,1.4-2.45,3.07-5,4.82-7.67,1.12-1.71,2.24-3.42,3.33-5.15C721.51,772.44,757.57,713,787.4,649.65c25.13-53.33,41.91-98.46,52.81-142C851.85,461.09,855.78,421.6,852.57,383.35Zm-390-55.79c1.94-5.07,3.81-10.22,5.61-15.2,4.73-13.05,9.2-25.37,15.21-37.13,23.51-46,58.27-77.21,103.31-92.83,43.3-15,86.23-11.3,127.61,11a211.9,211.9,0,0,1,26.73,17c-44.21-23.95-90.76-28.69-138.49-14-51,15.64-90.9,48.85-118.69,98.72-6.62,11.87-11.65,24.08-16.45,35.95-1.77-.81-3.53-1.6-5.29-2.39C462.27,328.22,462.42,327.84,462.53,327.56ZM175.9,534.61c-9-28.1-10.83-57.78-5.57-88.64,6.92-40.58,23.94-72.45,52-97.42,13.36-11.87,28.09-20.73,50.83-30.57a160.62,160.62,0,0,1,58.25-11.47A175.34,175.34,0,0,0,298.54,315l-.4.15c-24.85,9.7-42.09,19.32-57.63,32.17-32.52,26.9-53.71,63.16-63,107.77C171.87,482.32,171.34,508.9,175.9,534.61ZM812.36,436c-1.42,9.14-3.15,18.55-5.22,28.32-9.38,44.15-24.73,90.38-48.31,145.47C741.4,650.53,721.4,690,701.46,726.63,686.16,753,670.73,778.05,656.32,801l-.92,1.42c-29.32-6.53-58-13.45-85.71-20.69q-14.64-4.46-28.87-9c-51.7-16.61-97.51-34.81-140-55.66-50.69-24.86-88.92-50.07-120.32-79.34C259.39,618,243.62,598,232.27,576.5c-18.89-35.77-24-72.82-15.58-113.27,7.48-36,23.61-63.83,49.31-85.08,12.19-10.08,25.66-17.52,46.48-25.66,37-13.47,80.89-10.48,123.71,8.41,9.74,4.29,19.85,8.91,30,13.73,7.88,3.72,14.36,2.67,18.41,1.13,5.89-2.24,10.27-6.66,13-13.15,2.06-4.83,4-9.7,5.92-14.41,4.82-11.94,9.37-23.21,15.17-33.63,22.92-41.12,54.16-67.27,95.5-79.95,38.84-11.93,76.81-7.26,112.83,13.85,27.2,16,47.51,35.74,62.07,60.52,13.37,22.75,21.08,48.17,23.56,77.71A280.91,280.91,0,0,1,812.36,436Z"/><path class="cls-1" d="M666.35,548.83c-13-5.25-26.19-10.17-39.36-15.07a311,311,0,0,1-45.37-21.24c-16.77-9.53-33.6-9.38-49.5,2-15.28,11-22.47,26.63-23.75,45-1.53,21.83-6.43,42.73-16,62.44-9.1,18.77-9.17,37.51.62,58.87,1.36,3.19,4.89,8.15,9.32,12.4a54.74,54.74,0,0,0,69.38,5.09c7.57-5.3,14.28-11.68,21.65-17.24,12.16-9.15,25.17-16.77,40.23-19.73a122.76,122.76,0,0,0,48.79-20.8c11.12-8,19.28-17.91,20.5-32.06C704.74,586.92,693.41,559.73,666.35,548.83Z"/><path class="cls-1" d="M444.76,535.34c-10.33-6.73-21-12.91-33.41-15-8.19-1.36-15.46.23-20.84,7.14-3.39,4.36-5,9.47-5.78,14.83-2.3,15.76.71,30.67,8.34,47a62.42,62.42,0,0,0,8.67,13.41c11.62,13.94,26.83,20.29,44.69,21s32.34-11.28,34.45-28.84c1.69-14.12-3.08-26.44-11.53-37.39A98.58,98.58,0,0,0,444.76,535.34Z"/><path class="cls-1" d="M429.29,496.86c9.35,15.56,23.41,24.16,41,27.55s33.69-6.2,38.45-23.23c3.83-13.7,1-26.6-5.68-38.72a98.38,98.38,0,0,0-20.91-25.64c-9.18-8.23-18.76-16-30.73-19.92-7.88-2.59-15.31-2.13-21.68,3.87-4,3.79-6.38,8.59-8,13.77-4.68,15.22-4,30.42,1,47.74A62.11,62.11,0,0,0,429.29,496.86Z"/><path class="cls-1" d="M643.76,516.14c14.19,9.55,31.29,7.71,42.81-4.62a59,59,0,0,0,13.27-23.42c4.71-15.49,2.35-30.3-5-45.59A77.7,77.7,0,0,0,680,421.19c-7.19-7.31-15.07-13.73-25.36-16.19-8.43-2-15.48.37-20.94,7.23a34.13,34.13,0,0,0-5.71,10.4c-7.66,22.75-9.94,45.8-2.42,69A45.72,45.72,0,0,0,643.76,516.14Z"/><path class="cls-1" d="M548.58,481.65c15.64,6.91,32.15,2.1,41.33-12.06a59.05,59.05,0,0,0,9-25.38c1.92-16.08-3-30.25-13-44a77.74,77.74,0,0,0-18.29-18.39c-8.36-5.94-17.24-10.88-27.8-11.49-8.65-.51-15.18,3.08-19.35,10.79a34.3,34.3,0,0,0-3.8,11.24c-3.55,23.75-1.75,46.83,9.73,68.4A45.77,45.77,0,0,0,548.58,481.65Z"/></svg>